<svg width="60" height="60" viewBox="0 0 60 60" fill="none" xmlns="http://www.w3.org/2000/svg">
<circle cx="30" cy="30" r="30" fill="white"/>
<path d="M33.125 45.3125C32.6937 45.3125 32.3438 45.6625 32.3438 46.0938C32.3438 46.525 32.6937 46.875 33.125 46.875C33.5562 46.875 33.9062 46.525 33.9062 46.0938C33.9062 45.6625 33.5562 45.3125 33.125 45.3125Z" fill="#BE1E2D"/>
<path d="M44.0625 13.5938H41.7188V12.3438C41.7188 11.0514 40.6673 10 39.375 10H20.625C19.3327 10 18.2812 11.0514 18.2812 12.3438V13.5938H15.9375C14.6452 13.5938 13.5938 14.6452 13.5938 15.9375C13.5938 21.0201 15.972 24.7552 19.8303 25.7952C21.153 28.7065 23.2442 31.1814 25.8986 32.9698C26.51 33.3817 26.875 34.087 26.875 34.8563V39.1609C26.3395 39.2982 25.8481 39.5766 25.4468 39.978C24.8564 40.5685 24.5312 41.3531 24.5312 42.1875H23.75C22.4577 42.1875 21.4062 43.2389 21.4062 44.5312V49.2188C21.4062 49.6502 21.7561 50 22.1875 50H37.8125C38.2439 50 38.5938 49.6502 38.5938 49.2188V44.5312C38.5938 43.2389 37.5423 42.1875 36.25 42.1875H35.4688C35.4688 40.7341 34.4713 39.5091 33.125 39.1614V34.8602C33.125 34.0884 33.4902 33.3818 34.1022 32.9698C36.7568 31.1813 38.848 28.7063 40.1706 25.7949C44.0284 24.7546 46.4062 21.0197 46.4062 15.9375C46.4062 14.6452 45.3548 13.5938 44.0625 13.5938ZM15.1562 15.9375C15.1562 15.5067 15.5067 15.1562 15.9375 15.1562H18.2812V18.6484C18.2812 20.4293 18.551 22.1732 19.0836 23.8527C16.5974 22.6212 15.1562 19.777 15.1562 15.9375ZM36.25 43.75C36.6808 43.75 37.0312 44.1005 37.0312 44.5312V48.4375H22.9688V44.5312C22.9688 44.1005 23.3192 43.75 23.75 43.75H36.25ZM40.1562 18.6484C40.1562 20.7825 39.7314 22.8591 38.8933 24.8203C37.7011 27.6107 35.7425 29.9806 33.2294 31.6738C32.1856 32.3764 31.5625 33.5676 31.5625 34.8602V39.8438C31.5625 40.2752 31.9123 40.625 32.3438 40.625C33.2053 40.625 33.9062 41.3259 33.9062 42.1875H26.0938C26.0938 41.7705 26.2564 41.3782 26.5516 41.0829C26.8324 40.8021 27.2009 40.6413 27.595 40.6262C27.6152 40.6277 27.6356 40.6285 27.6562 40.6285C28.0876 40.6285 28.4374 40.2752 28.4374 39.8438V34.8563C28.4374 33.5664 27.8147 32.3768 26.7716 31.674C24.2583 29.9807 22.2997 27.6108 21.1073 24.8202C20.2689 22.8596 19.8438 20.7831 19.8438 18.6484V12.3438C19.8438 11.913 20.1942 11.5625 20.625 11.5625H39.375C39.8058 11.5625 40.1562 11.913 40.1562 12.3438V18.6484ZM40.9167 23.8525C41.4491 22.1727 41.7188 20.4288 41.7188 18.6484V15.1562H44.0625C44.4933 15.1562 44.8438 15.5067 44.8438 15.9375C44.8438 19.7768 43.4027 22.6209 40.9167 23.8525Z" fill="#BE1E2D"/>
<path d="M36.1827 19.2313C36.1377 19.0926 36.0548 18.9693 35.9433 18.8753C35.8318 18.7814 35.6963 18.7205 35.552 18.6996L32.1804 18.2102L30.6724 15.1543C30.6079 15.0236 30.5081 14.9135 30.3843 14.8365C30.2604 14.7595 30.1176 14.7188 29.9718 14.7188C29.826 14.7188 29.6831 14.7595 29.5593 14.8365C29.4354 14.9135 29.3356 15.0236 29.2711 15.1543L27.7631 18.2102L24.3916 18.6996C24.2473 18.7205 24.1118 18.7815 24.0004 18.8754C23.8889 18.9694 23.806 19.0927 23.7609 19.2313C23.7159 19.37 23.7105 19.5185 23.7454 19.66C23.7803 19.8015 23.8542 19.9305 23.9586 20.0322L26.3987 22.4104L25.8228 25.7687C25.7982 25.9124 25.8142 26.0601 25.8692 26.1951C25.9241 26.3302 26.0157 26.4471 26.1336 26.5328C26.2516 26.6185 26.3911 26.6695 26.5365 26.68C26.6819 26.6905 26.8273 26.6601 26.9564 26.5923L29.9718 25.0069L32.988 26.5923C33.1171 26.6602 33.2625 26.6906 33.4079 26.68C33.5533 26.6695 33.6929 26.6185 33.8108 26.5328C33.9288 26.4471 34.0204 26.3301 34.0752 26.195C34.1301 26.06 34.1461 25.9122 34.1215 25.7686L33.5449 22.4103L35.985 20.0322C36.0894 19.9305 36.1632 19.8015 36.1982 19.66C36.2331 19.5185 36.2278 19.37 36.1827 19.2313ZM32.1601 21.578C32.0694 21.6665 32.0015 21.7756 31.9624 21.8961C31.9232 22.0166 31.914 22.1449 31.9354 22.2697L32.3136 24.4726L30.3353 23.4327C30.2232 23.3738 30.0984 23.343 29.9718 23.343C29.8451 23.343 29.7203 23.3738 29.6082 23.4328L27.6305 24.4726L28.0083 22.2696C28.0297 22.1447 28.0205 22.0165 27.9813 21.8961C27.9421 21.7756 27.8743 21.6664 27.7836 21.578L26.1832 20.0183L28.3943 19.6974C28.5196 19.6792 28.6387 19.6308 28.7412 19.5563C28.8437 19.4819 28.9266 19.3836 28.9826 19.27L29.9718 17.2654L30.9611 19.27C31.0171 19.3836 31.1 19.4819 31.2025 19.5563C31.305 19.6308 31.424 19.6792 31.5494 19.6974L33.7605 20.0183L32.1601 21.578ZM30 45.3125H26.875C26.4436 45.3125 26.0937 45.6623 26.0937 46.0938C26.0937 46.5253 26.4436 46.875 26.875 46.875H30C30.4314 46.875 30.7812 46.5253 30.7812 46.0938C30.7812 45.6623 30.4314 45.3125 30 45.3125ZM42.032 47.6563H42.4675C42.2457 47.6123 42.0965 47.6079 42.032 47.6563Z" fill="#BE1E2D"/>
</svg>
