<svg width="350" height="350" viewBox="0 0 350 350" fill="none" xmlns="http://www.w3.org/2000/svg">
<rect width="350" height="350" rx="175" fill="#BE1E2D"/>
<path d="M68.4554 163V126.636H92.9583V132.975H76.1436V141.64H91.6976V147.979H76.1436V156.661H93.0293V163H68.4554ZM129.486 126.636V163H122.846L107.025 140.113H106.759V163H99.0707V126.636H105.818L121.514 149.506H121.833V126.636H129.486ZM149.563 150.358H156.097L159.382 154.584L162.614 158.348L168.704 165.983H161.531L157.34 160.834L155.192 157.78L149.563 150.358ZM169.254 144.818C169.254 148.784 168.503 152.157 166.999 154.939C165.508 157.721 163.472 159.845 160.892 161.313C158.323 162.769 155.435 163.497 152.227 163.497C148.995 163.497 146.095 162.763 143.526 161.295C140.958 159.828 138.928 157.703 137.436 154.921C135.945 152.139 135.199 148.772 135.199 144.818C135.199 140.853 135.945 137.479 137.436 134.697C138.928 131.916 140.958 129.797 143.526 128.341C146.095 126.873 148.995 126.139 152.227 126.139C155.435 126.139 158.323 126.873 160.892 128.341C163.472 129.797 165.508 131.916 166.999 134.697C168.503 137.479 169.254 140.853 169.254 144.818ZM161.46 144.818C161.46 142.25 161.075 140.083 160.306 138.32C159.548 136.556 158.477 135.218 157.092 134.307C155.707 133.395 154.085 132.94 152.227 132.94C150.368 132.94 148.747 133.395 147.362 134.307C145.977 135.218 144.9 136.556 144.13 138.32C143.373 140.083 142.994 142.25 142.994 144.818C142.994 147.387 143.373 149.553 144.13 151.317C144.9 153.08 145.977 154.418 147.362 155.33C148.747 156.241 150.368 156.697 152.227 156.697C154.085 156.697 155.707 156.241 157.092 155.33C158.477 154.418 159.548 153.08 160.306 151.317C161.075 149.553 161.46 147.387 161.46 144.818ZM197.411 126.636H205.099V150.251C205.099 152.903 204.465 155.223 203.199 157.212C201.944 159.2 200.186 160.751 197.925 161.864C195.665 162.964 193.031 163.515 190.024 163.515C187.006 163.515 184.366 162.964 182.105 161.864C179.844 160.751 178.086 159.2 176.832 157.212C175.577 155.223 174.95 152.903 174.95 150.251V126.636H182.638V149.594C182.638 150.979 182.94 152.21 183.543 153.288C184.159 154.365 185.023 155.211 186.136 155.827C187.248 156.442 188.545 156.75 190.024 156.75C191.516 156.75 192.812 156.442 193.913 155.827C195.025 155.211 195.884 154.365 196.487 153.288C197.103 152.21 197.411 150.979 197.411 149.594V126.636ZM219.112 126.636V163H211.424V126.636H219.112ZM225.438 163V126.636H239.784C242.531 126.636 244.874 127.128 246.816 128.11C248.769 129.081 250.254 130.46 251.272 132.247C252.302 134.023 252.817 136.112 252.817 138.515C252.817 140.93 252.296 143.007 251.255 144.747C250.213 146.475 248.704 147.801 246.727 148.724C244.762 149.648 242.383 150.109 239.589 150.109H229.983V143.93H238.346C239.814 143.93 241.033 143.729 242.004 143.327C242.975 142.924 243.697 142.321 244.17 141.516C244.655 140.711 244.898 139.71 244.898 138.515C244.898 137.308 244.655 136.29 244.17 135.461C243.697 134.632 242.969 134.005 241.986 133.579C241.016 133.141 239.79 132.922 238.311 132.922H233.126V163H225.438ZM245.076 146.452L254.113 163H245.626L236.784 146.452H245.076ZM258.25 163V126.636H282.753V132.975H265.939V141.64H281.493V147.979H265.939V156.661H282.824V163H258.25ZM151.703 187.636V224H145.062L129.242 201.113H128.976V224H121.287V187.636H128.035L143.731 210.506H144.05V187.636H151.703ZM191.471 205.818C191.471 209.784 190.72 213.157 189.216 215.939C187.725 218.721 185.689 220.845 183.108 222.313C180.54 223.769 177.651 224.497 174.444 224.497C171.212 224.497 168.312 223.763 165.743 222.295C163.175 220.828 161.145 218.703 159.653 215.921C158.162 213.139 157.416 209.772 157.416 205.818C157.416 201.853 158.162 198.479 159.653 195.697C161.145 192.916 163.175 190.797 165.743 189.341C168.312 187.873 171.212 187.139 174.444 187.139C177.651 187.139 180.54 187.873 183.108 189.341C185.689 190.797 187.725 192.916 189.216 195.697C190.72 198.479 191.471 201.853 191.471 205.818ZM183.676 205.818C183.676 203.25 183.292 201.083 182.522 199.32C181.765 197.556 180.694 196.218 179.309 195.307C177.924 194.395 176.302 193.94 174.444 193.94C172.585 193.94 170.963 194.395 169.578 195.307C168.194 196.218 167.116 197.556 166.347 199.32C165.589 201.083 165.211 203.25 165.211 205.818C165.211 208.387 165.589 210.553 166.347 212.317C167.116 214.08 168.194 215.418 169.578 216.33C170.963 217.241 172.585 217.697 174.444 217.697C176.302 217.697 177.924 217.241 179.309 216.33C180.694 215.418 181.765 214.08 182.522 212.317C183.292 210.553 183.676 208.387 183.676 205.818ZM203.985 224L193.58 187.636H201.978L207.997 212.903H208.299L214.94 187.636H222.131L228.754 212.956H229.073L235.093 187.636H243.491L233.086 224H225.593L218.669 200.225H218.384L211.477 224H203.985Z" fill="white"/>
</svg>
