<svg width="35" height="24" viewBox="0 0 35 24" fill="none" xmlns="http://www.w3.org/2000/svg">
<g clip-path="url(#clip0_810_47947)">
<path d="M33.3785 3.73709C32.9864 2.26579 31.8314 1.1072 30.3645 0.713987C27.706 -0.000621796 17.0455 -0.000623703 17.0455 -0.000623703C17.0455 -0.000623703 6.38494 -0.000621796 3.72635 0.713987C2.25961 1.1072 1.10438 2.26579 0.71237 3.73709C0 6.40371 0 11.9675 0 11.9675C0 11.9675 0 17.5311 0.71237 20.198C1.10438 21.6691 2.25961 22.8277 3.72635 23.2211C6.38494 23.9355 17.0455 23.9355 17.0455 23.9355C17.0455 23.9355 27.706 23.9355 30.3645 23.2211C31.8314 22.8277 32.9864 21.6691 33.3785 20.198C34.0909 17.5311 34.0909 11.9675 34.0909 11.9675C34.0909 11.9675 34.0909 6.40371 33.3785 3.73709Z" fill="#ED1D24"/>
<path d="M13.5586 17.0176L22.4687 11.9664L13.5586 6.91468V17.0176Z" fill="white"/>
</g>
<defs>
<clipPath id="clip0_810_47947">
<rect width="34.0909" height="23.9362" fill="white"/>
</clipPath>
</defs>
</svg>
