<svg width="34" height="24" viewBox="0 0 34 24" fill="none" xmlns="http://www.w3.org/2000/svg">
<path d="M33.2895 3.74768C32.8985 2.27245 31.7465 1.11077 30.2836 0.716516C27.6321 0 17 0 17 0C17 0 6.36791 0 3.71641 0.716516C2.25358 1.11077 1.10144 2.27245 0.710471 3.74768C0 6.42141 0 12 0 12C0 12 0 17.5785 0.710471 20.2525C1.10144 21.7275 2.25358 22.8892 3.71641 23.2836C6.36791 24 17 24 17 24C17 24 27.6321 24 30.2836 23.2836C31.7465 22.8892 32.8985 21.7275 33.2895 20.2525C34 17.5785 34 12 34 12C34 12 34 6.42141 33.2895 3.74768Z" fill="#ED1D24"/>
<path d="M13.5234 17.0636L22.4098 11.9989L13.5234 6.93376V17.0636Z" fill="white"/>
</svg>
