<svg width="48" height="48" viewBox="0 0 48 48" fill="none" xmlns="http://www.w3.org/2000/svg">
<rect width="48" height="48" rx="24" fill="#BE1E2D"/>
<path fill-rule="evenodd" clip-rule="evenodd" d="M17 20.0366C17 18.0844 17.7375 16.2121 19.0503 14.8316C20.363 13.4511 22.1435 12.6756 24 12.6756C25.8565 12.6756 27.637 13.4511 28.9497 14.8316C30.2625 16.2121 31 18.0844 31 20.0366V21.125C32.696 21.3806 34 22.9148 34 24.7687V25.0316C33.9999 25.4876 33.913 25.939 33.7444 26.3591C33.5759 26.7792 33.3291 27.1596 33.0186 27.4779C32.7081 27.7962 32.3401 28.0459 31.9365 28.2124C31.5328 28.3788 31.1015 28.4587 30.668 28.4471C29.928 30.6765 28.046 32.1792 26.015 32.5599C25.545 32.7407 24.989 32.6556 24.5 32.6556C24.1022 32.6556 23.7206 32.4894 23.4393 32.1936C23.158 31.8977 23 31.4965 23 31.0782C23 30.6598 23.158 30.2586 23.4393 29.9628C23.7206 29.667 24.1022 29.5008 24.5 29.5008H25.5C25.7348 29.5008 25.9664 29.5587 26.176 29.6699C26.3856 29.7812 26.5675 29.9426 26.707 30.1412C28.003 29.4924 29 28.1222 29 26.3461V20.0366C29 18.6422 28.4732 17.3048 27.5355 16.3188C26.5979 15.3327 25.3261 14.7788 24 14.7788C22.6739 14.7788 21.4021 15.3327 20.4645 16.3188C19.5268 17.3048 19 18.6422 19 20.0366V26.609C19 27.0971 18.8156 27.5651 18.4874 27.9103C18.1592 28.2554 17.7141 28.4493 17.25 28.4493C16.388 28.4493 15.5614 28.0892 14.9519 27.4483C14.3424 26.8073 14 25.938 14 25.0316V24.7687C13.9998 23.8835 14.303 23.0279 14.854 22.3587C15.4049 21.6895 16.1669 21.2515 17 21.125V20.0366ZM17 23.2808C16.7074 23.3895 16.4541 23.5911 16.275 23.8576C16.0959 24.124 15.9998 24.4424 16 24.7687V25.0316C16 25.6678 16.43 26.1989 17 26.3198V23.2808ZM31 23.2808V26.3198C31.57 26.1978 32 25.6678 32 25.0316V24.7687C32.0002 24.4424 31.9041 24.124 31.725 23.8576C31.5459 23.5911 31.2926 23.3895 31 23.2808Z" fill="white"/>
</svg>
