<svg width="56" height="56" viewBox="0 0 56 56" fill="none" xmlns="http://www.w3.org/2000/svg">
<g filter="url(#filter0_d_1416_307)">
<circle cx="24" cy="24" r="12" fill="#25D366"/>
</g>
<path fill-rule="evenodd" clip-rule="evenodd" d="M29.6687 18.325C28.1648 16.8265 26.1647 16.0008 24.0336 16C19.6423 16 16.0684 19.5564 16.0668 23.9278C16.0661 25.3252 16.4332 26.6892 17.1303 27.8913L16 32L20.2233 30.8975C21.3868 31.5294 22.697 31.862 24.0302 31.8624H24.0336C28.4242 31.8624 31.9985 28.3056 32 23.9342C32.0008 21.8156 31.173 19.824 29.6687 18.3254V18.325ZM24.0336 30.5235H24.0309C22.8429 30.5231 21.6775 30.2053 20.6607 29.605L20.4189 29.4621L17.9126 30.1163L18.5815 27.6845L18.4241 27.4351C17.7614 26.3859 17.4111 25.1731 17.4118 23.9282C17.4134 20.295 20.3837 17.3389 24.0363 17.3389C25.8049 17.3397 27.4673 18.0259 28.7176 19.2716C29.9678 20.517 30.6558 22.173 30.655 23.9335C30.6535 27.567 27.6832 30.5231 24.0336 30.5231V30.5235ZM27.6656 25.5883C27.4665 25.4891 26.4879 25.0101 26.3053 24.9439C26.1227 24.8778 25.9902 24.8447 25.8576 25.0431C25.7251 25.2416 25.3435 25.6879 25.2273 25.8198C25.1112 25.9521 24.9951 25.9685 24.796 25.8692C24.5971 25.77 23.9557 25.5609 23.1952 24.8861C22.6035 24.3607 22.2039 23.7122 22.0878 23.5138C21.9716 23.3153 22.0756 23.2081 22.1748 23.1097C22.2642 23.0207 22.3739 22.8782 22.4736 22.7626C22.5733 22.647 22.6061 22.5642 22.6726 22.4322C22.7391 22.2999 22.7058 22.1844 22.6562 22.0851C22.6065 21.9859 22.2085 21.0108 22.0423 20.6143C21.8807 20.2281 21.7165 20.2806 21.5946 20.2741C21.4785 20.2684 21.346 20.2673 21.213 20.2673C21.0801 20.2673 20.8646 20.3167 20.682 20.5151C20.4995 20.7135 19.9853 21.1929 19.9853 22.1676C19.9853 23.1424 20.6985 24.0848 20.7982 24.2171C20.8979 24.3494 22.202 26.3501 24.1986 27.2085C24.6735 27.4127 25.0444 27.5347 25.3335 27.6259C25.8103 27.7769 26.2442 27.7556 26.5872 27.7046C26.9696 27.6476 27.7649 27.2252 27.9307 26.7626C28.0964 26.2999 28.0964 25.903 28.0468 25.8206C27.9972 25.7381 27.8642 25.6883 27.6652 25.589L27.6656 25.5883Z" fill="white"/>
<defs>
<filter id="filter0_d_1416_307" x="0" y="0" width="56" height="56" filterUnits="userSpaceOnUse" color-interpolation-filters="sRGB">
<feFlood flood-opacity="0" result="BackgroundImageFix"/>
<feColorMatrix in="SourceAlpha" type="matrix" values="0 0 0 0 0 0 0 0 0 0 0 0 0 0 0 0 0 0 127 0" result="hardAlpha"/>
<feOffset dx="4" dy="4"/>
<feGaussianBlur stdDeviation="8"/>
<feComposite in2="hardAlpha" operator="out"/>
<feColorMatrix type="matrix" values="0 0 0 0 0 0 0 0 0 0 0 0 0 0 0 0 0 0 0.15 0"/>
<feBlend mode="normal" in2="BackgroundImageFix" result="effect1_dropShadow_1416_307"/>
<feBlend mode="normal" in="SourceGraphic" in2="effect1_dropShadow_1416_307" result="shape"/>
</filter>
</defs>
</svg>
