<svg width="41" height="42" viewBox="0 0 41 42" fill="none" xmlns="http://www.w3.org/2000/svg">
<path d="M23.8569 12.8401C25.1662 13.0951 26.3695 13.7342 27.3127 14.6756C28.256 15.6171 28.8963 16.8181 29.1518 18.1249M23.8569 7.48846C26.5771 7.79008 29.1137 9.00589 31.0502 10.9363C32.9867 12.8667 34.2081 15.3969 34.5137 18.1115M33.1732 28.788V32.8018C33.1747 33.1744 33.0982 33.5432 32.9487 33.8846C32.7991 34.226 32.5798 34.5325 32.3047 34.7844C32.0296 35.0363 31.7048 35.2281 31.3512 35.3474C30.9975 35.4668 30.6228 35.5111 30.251 35.4776C26.1261 35.0303 22.1639 33.6235 18.6827 31.3702C15.4438 29.3161 12.6979 26.5754 10.6398 23.3427C8.37438 19.8524 6.96455 15.8785 6.52455 11.743C6.49105 11.3731 6.53511 11.0002 6.65391 10.6481C6.77271 10.2961 6.96365 9.97255 7.21458 9.69819C7.46551 9.42383 7.77093 9.20462 8.11139 9.05452C8.45186 8.90442 8.8199 8.82673 9.1921 8.82638H13.2135C13.8641 8.81999 14.4947 9.04991 14.988 9.4733C15.4812 9.89669 15.8034 10.4846 15.8945 11.1276C16.0642 12.4121 16.379 13.6733 16.8328 14.8871C17.0132 15.366 17.0522 15.8864 16.9453 16.3868C16.8384 16.8871 16.59 17.3464 16.2296 17.7101L14.5272 19.4093C16.4354 22.7588 19.2141 25.5322 22.57 27.4367L24.2724 25.7376C24.6369 25.3779 25.097 25.13 25.5983 25.0233C26.0996 24.9166 26.6211 24.9555 27.1008 25.1355C28.317 25.5885 29.5806 25.9027 30.8676 26.0721C31.5187 26.1638 32.1134 26.4911 32.5385 26.9919C32.9636 27.4926 33.1895 28.1319 33.1732 28.788Z" stroke="#BE1E2D" stroke-width="2" stroke-linecap="round" stroke-linejoin="round"/>
</svg>
