<svg width="30" height="30" viewBox="0 0 30 30" fill="none" xmlns="http://www.w3.org/2000/svg">
<rect width="30" height="30" rx="15" fill="white"/>
<g clip-path="url(#clip0_810_8332)">
<path d="M15 7.31422C17.5032 7.31422 17.7997 7.32375 18.7883 7.36885C19.7023 7.41057 20.1987 7.5633 20.5291 7.69165C20.9667 7.86172 21.279 8.06491 21.6071 8.39295C21.9351 8.72099 22.1383 9.03333 22.3083 9.47089C22.4367 9.80128 22.5894 10.2977 22.6311 11.2117C22.6763 12.2003 22.6858 12.4968 22.6858 15C22.6858 17.5033 22.6763 17.7997 22.6311 18.7883C22.5894 19.7024 22.4367 20.1988 22.3083 20.5291C22.1383 20.9667 21.9351 21.279 21.6071 21.6071C21.279 21.9351 20.9667 22.1383 20.5291 22.3084C20.1987 22.4367 19.7023 22.5895 18.7883 22.6312C17.7999 22.6763 17.5034 22.6858 15 22.6858C12.4966 22.6858 12.2001 22.6763 11.2117 22.6312C10.2976 22.5895 9.80124 22.4367 9.47089 22.3084C9.03329 22.1383 8.72095 21.9351 8.39291 21.6071C8.06487 21.279 7.86168 20.9667 7.69165 20.5291C7.56326 20.1988 7.41053 19.7024 7.36882 18.7883C7.32371 17.7997 7.31419 17.5033 7.31419 15C7.31419 12.4968 7.32371 12.2003 7.36882 11.2117C7.41053 10.2977 7.56326 9.80128 7.69165 9.47089C7.86168 9.03333 8.06487 8.72099 8.39291 8.39295C8.72095 8.06491 9.03329 7.86172 9.47089 7.69165C9.80124 7.5633 10.2976 7.41057 11.2117 7.36885C12.2003 7.32375 12.4967 7.31422 15 7.31422ZM15 5.625C12.4539 5.625 12.1346 5.63579 11.1347 5.68142C10.1368 5.72697 9.45534 5.88542 8.85898 6.11719C8.24249 6.35678 7.71967 6.67734 7.19849 7.19852C6.6773 7.71971 6.35674 8.24253 6.11716 8.85902C5.88539 9.45537 5.72693 10.1368 5.68138 11.1347C5.63575 12.1346 5.625 12.4539 5.625 15C5.625 17.5461 5.63575 17.8654 5.68138 18.8653C5.72693 19.8632 5.88539 20.5447 6.11716 21.141C6.35674 21.7575 6.6773 22.2803 7.19849 22.8015C7.71967 23.3227 8.24249 23.6433 8.85898 23.8828C9.45534 24.1146 10.1368 24.2731 11.1347 24.3186C12.1346 24.3642 12.4539 24.375 15 24.375C17.5461 24.375 17.8654 24.3642 18.8653 24.3186C19.8632 24.2731 20.5446 24.1146 21.141 23.8828C21.7575 23.6433 22.2803 23.3227 22.8015 22.8015C23.3227 22.2803 23.6432 21.7575 23.8828 21.141C24.1146 20.5447 24.273 19.8632 24.3186 18.8653C24.3642 17.8654 24.375 17.5461 24.375 15C24.375 12.4539 24.3642 12.1346 24.3186 11.1347C24.273 10.1368 24.1146 9.45537 23.8828 8.85902C23.6432 8.24253 23.3227 7.71971 22.8015 7.19852C22.2803 6.67734 21.7575 6.35678 21.141 6.11719C20.5446 5.88542 19.8632 5.72697 18.8653 5.68142C17.8654 5.63579 17.5461 5.625 15 5.625ZM15 10.1858C12.3412 10.1858 10.1858 12.3412 10.1858 15C10.1858 17.6588 12.3412 19.8142 15 19.8142C17.6588 19.8142 19.8142 17.6588 19.8142 15C19.8142 12.3412 17.6588 10.1858 15 10.1858ZM15 18.125C13.2741 18.125 11.875 16.7259 11.875 15C11.875 13.2741 13.2741 11.875 15 11.875C16.7259 11.875 18.125 13.2741 18.125 15C18.125 16.7259 16.7259 18.125 15 18.125ZM21.1294 9.99561C21.1294 10.6169 20.6257 11.1206 20.0044 11.1206C19.3831 11.1206 18.8794 10.6169 18.8794 9.99561C18.8794 9.37429 19.3831 8.87063 20.0044 8.87063C20.6257 8.87063 21.1294 9.37429 21.1294 9.99561Z" fill="#111111"/>
</g>
<defs>
<clipPath id="clip0_810_8332">
<rect width="18.75" height="18.75" fill="white" transform="translate(5.625 5.625)"/>
</clipPath>
</defs>
</svg>
