<svg width="30" height="30" viewBox="0 0 30 30" fill="none" xmlns="http://www.w3.org/2000/svg">
<rect width="30" height="30" rx="15" fill="white"/>
<path d="M10.1733 23.0859H6.28496V10.5665H10.1733V23.0859ZM8.22706 8.85778C6.98512 8.85778 5.97656 7.82838 5.97656 6.58644C5.97656 5.3445 6.98512 4.33594 8.22706 4.33594C9.46901 4.33594 10.4776 5.3445 10.4776 6.58644C10.4817 7.82838 9.47317 8.85778 8.22706 8.85778ZM24.7266 23.0859H20.8465V16.9887C20.8465 15.5343 20.8174 13.6713 18.8253 13.6713C16.804 13.6713 16.4956 15.2509 16.4956 16.8804V23.0859H12.6114V10.5665H16.3414V12.2752H16.3955C16.9165 11.2916 18.1834 10.2539 20.0755 10.2539C24.0056 10.2498 24.7307 12.842 24.7307 16.2094V23.0859H24.7266Z" fill="#111111"/>
</svg>
