<svg width="34" height="42" viewBox="0 0 34 42" fill="none" xmlns="http://www.w3.org/2000/svg">
<path d="M16.7744 3.20929C20.3465 3.20929 23.7844 4.70855 26.3281 7.39679C28.8735 10.0869 30.3124 13.7467 30.3125 17.5735C30.3125 23.1671 26.8899 28.4786 23.2988 32.4847C21.5207 34.4683 19.7397 36.0897 18.4023 37.2151C17.7345 37.7772 17.1794 38.2142 16.793 38.5091C16.7871 38.5136 16.7802 38.5173 16.7744 38.5218C16.7687 38.5174 16.7626 38.5135 16.7568 38.5091C16.3704 38.2142 15.8145 37.7773 15.1465 37.2151C13.8091 36.0897 12.0281 34.4683 10.25 32.4847C6.65894 28.4786 3.23633 23.1671 3.23633 17.5735C3.23644 13.7467 4.67534 10.0869 7.2207 7.39679C9.76438 4.70852 13.2023 3.20934 16.7744 3.20929Z" stroke="#BE1E2D" stroke-width="2" stroke-linecap="round" stroke-linejoin="round"/>
<path d="M16.7734 13.452C18.8461 13.452 20.6199 15.2443 20.6201 17.5731C20.6201 19.9022 18.8462 21.6952 16.7734 21.6952C14.7008 21.695 12.9277 19.9021 12.9277 17.5731C12.928 15.2444 14.701 13.4523 16.7734 13.452Z" stroke="#BE1E2D" stroke-width="2" stroke-linecap="round" stroke-linejoin="round"/>
</svg>
