<svg width="69" height="61" viewBox="0 0 69 61" fill="none" xmlns="http://www.w3.org/2000/svg">
<path d="M10.6152 9.29688L13.418 10.1855C12.9883 11.748 12.2721 12.9102 11.2695 13.6719C10.2734 14.4271 9.00716 14.8047 7.4707 14.8047C5.56966 14.8047 4.00716 14.1569 2.7832 12.8613C1.55924 11.5592 0.947266 9.7819 0.947266 7.5293C0.947266 5.14648 1.5625 3.29753 2.79297 1.98242C4.02344 0.660807 5.64128 0 7.64648 0C9.39779 0 10.8203 0.517578 11.9141 1.55273C12.5651 2.16471 13.0534 3.04362 13.3789 4.18945L10.5176 4.87305C10.3483 4.13086 9.99349 3.54492 9.45312 3.11523C8.91927 2.68555 8.26823 2.4707 7.5 2.4707C6.4388 2.4707 5.57617 2.85156 4.91211 3.61328C4.25456 4.375 3.92578 5.60872 3.92578 7.31445C3.92578 9.12435 4.2513 10.4134 4.90234 11.1816C5.55339 11.9499 6.39974 12.334 7.44141 12.334C8.20964 12.334 8.87044 12.0898 9.42383 11.6016C9.97721 11.1133 10.3743 10.3451 10.6152 9.29688ZM15.9863 14.5605V0.361328H18.877V12.1484H26.0645V14.5605H15.9863ZM27.5488 7.49023C27.5488 6.0319 27.7669 4.80794 28.2031 3.81836C28.5286 3.08919 28.9714 2.4349 29.5312 1.85547C30.0977 1.27604 30.7161 0.846354 31.3867 0.566406C32.2786 0.188802 33.3073 0 34.4727 0C36.582 0 38.2682 0.654297 39.5312 1.96289C40.8008 3.27148 41.4355 5.09115 41.4355 7.42188C41.4355 9.73307 40.8073 11.543 39.5508 12.8516C38.2943 14.1536 36.6146 14.8047 34.5117 14.8047C32.3828 14.8047 30.6901 14.1569 29.4336 12.8613C28.1771 11.5592 27.5488 9.76888 27.5488 7.49023ZM30.5273 7.39258C30.5273 9.01367 30.9017 10.2441 31.6504 11.084C32.3991 11.9173 33.3496 12.334 34.502 12.334C35.6543 12.334 36.5983 11.9206 37.334 11.0938C38.0762 10.2604 38.4473 9.01367 38.4473 7.35352C38.4473 5.71289 38.0859 4.48893 37.3633 3.68164C36.6471 2.87435 35.6934 2.4707 34.502 2.4707C33.3105 2.4707 32.3503 2.88086 31.6211 3.70117C30.8919 4.51497 30.5273 5.74544 30.5273 7.39258ZM42.9688 9.90234L45.7812 9.62891C45.9505 10.5729 46.2923 11.2663 46.8066 11.709C47.3275 12.1517 48.0273 12.373 48.9062 12.373C49.8372 12.373 50.5371 12.1777 51.0059 11.7871C51.4811 11.39 51.7188 10.9277 51.7188 10.4004C51.7188 10.0618 51.6178 9.77539 51.416 9.54102C51.2207 9.30013 50.8757 9.0918 50.3809 8.91602C50.0423 8.79883 49.2708 8.59049 48.0664 8.29102C46.5169 7.9069 45.4297 7.4349 44.8047 6.875C43.9258 6.08724 43.4863 5.12695 43.4863 3.99414C43.4863 3.26497 43.6914 2.58464 44.1016 1.95312C44.5182 1.3151 45.1139 0.830078 45.8887 0.498047C46.6699 0.166016 47.6107 0 48.7109 0C50.5078 0 51.8587 0.39388 52.7637 1.18164C53.6751 1.9694 54.1536 3.02083 54.1992 4.33594L51.3086 4.46289C51.1849 3.72721 50.918 3.19987 50.5078 2.88086C50.1042 2.55534 49.4954 2.39258 48.6816 2.39258C47.8418 2.39258 47.1842 2.5651 46.709 2.91016C46.403 3.13151 46.25 3.42773 46.25 3.79883C46.25 4.13737 46.3932 4.42708 46.6797 4.66797C47.0443 4.97396 47.9297 5.29297 49.3359 5.625C50.7422 5.95703 51.7806 6.30208 52.4512 6.66016C53.1283 7.01172 53.6556 7.49674 54.0332 8.11523C54.4173 8.72721 54.6094 9.48568 54.6094 10.3906C54.6094 11.2109 54.3815 11.9792 53.9258 12.6953C53.4701 13.4115 52.8255 13.9453 51.9922 14.2969C51.1589 14.6419 50.1204 14.8145 48.877 14.8145C47.0671 14.8145 45.6771 14.3978 44.707 13.5645C43.737 12.7246 43.1576 11.5039 42.9688 9.90234ZM57.041 14.5605V0.244141H67.6562V2.66602H59.9316V5.83984H67.1191V8.25195H59.9316V12.1484H67.9297V14.5605H57.041Z" fill="white"/>
<rect width="40.4059" height="2.0203" transform="matrix(0.707106 0.707108 -0.707106 0.707108 21.4287 30.5605)" fill="white"/>
<rect x="20" y="59.1318" width="40.4059" height="2.0203" transform="rotate(-45 20 59.1318)" fill="white"/>
</svg>
